<svg id="Capa_1" enable-background="new 0 0 488.101 488.101" height="512" viewBox="0 0 488.101 488.101" width="512" xmlns="http://www.w3.org/2000/svg"><g><path d="m337.754 63.786-7.4 60.85-10.32 84.78-31.57 259.51h-239.17l-31.57-259.51-10.31-84.78-7.41-60.85h73.39v-44.61h190.98v44.61z" fill="#d6d8e0"/><path d="m78.37 209.414 18.9 259.51h-47.98l-31.57-259.51-10.31-84.78-7.41-60.85h67.75l4.44 60.85z" fill="#bdc0c9"/><path d="m320.034 209.416-31.57 259.51h-239.17l-31.57-259.51z" fill="#f5dc60"/><path d="m97.274 468.926h-47.98l-31.57-259.51h60.65z" fill="#ddc448"/><path d="m337.754 63.786-7.4 60.85h-322.94l-7.41-60.85h73.39v-44.61h190.98v44.61z" fill="#526071"/><path d="m72.194 124.636h-64.78l-7.41-60.85h67.75z" fill="#3e4a56"/><path d="m73.397 19.176h38.31v44.61h-38.31z" fill="#3e4a56"/><path d="m488.101 137.904c-56.912 0-103.047 46.136-103.047 103.047 56.911.001 103.047-46.135 103.047-103.047z" fill="#77bf9a"/><path d="m127.387 173.029h-53.545c-4.142 0-7.5-3.358-7.5-7.5s3.358-7.5 7.5-7.5h53.545c4.142 0 7.5 3.358 7.5 7.5s-3.358 7.5-7.5 7.5z" fill="#fff"/><path d="m127.387 255.65h-53.545c-4.142 0-7.5-3.358-7.5-7.5s3.358-7.5 7.5-7.5h53.545c4.142 0 7.5 3.358 7.5 7.5s-3.358 7.5-7.5 7.5z" fill="#fff"/><path d="m127.387 338.272h-53.545c-4.142 0-7.5-3.358-7.5-7.5s3.358-7.5 7.5-7.5h53.545c4.142 0 7.5 3.358 7.5 7.5s-3.358 7.5-7.5 7.5z" fill="#fff"/><path d="m127.387 420.893h-53.545c-4.142 0-7.5-3.358-7.5-7.5s3.358-7.5 7.5-7.5h53.545c4.142 0 7.5 3.358 7.5 7.5s-3.358 7.5-7.5 7.5z" fill="#fff"/><circle cx="344.538" cy="350.924" fill="#eab74d" r="118"/><g fill="#d09d3f"><path d="m278.985 350.924c0-56.156 39.229-103.146 91.777-115.071-8.434-1.914-17.21-2.929-26.224-2.929-65.17 0-118.001 52.831-118.001 118 0 65.17 52.831 118 118.001 118 9.013 0 17.789-1.015 26.224-2.929-52.548-11.925-91.777-58.915-91.777-115.071z"/><path d="m391.213 284.139c-3.271 0-6.219-2.201-7.169-5.323-.935-3.075.253-6.49 2.887-8.324 5.622-3.914 13.346 1.51 11.507 8.141-.889 3.21-3.89 5.506-7.225 5.506z"/><path d="m405.523 303.21c-3.143 0-5.996-2.019-7.063-4.971-1.114-3.082-.008-6.676 2.651-8.592 5.529-3.983 13.382 1.209 11.68 7.891-.839 3.291-3.864 5.672-7.268 5.672z"/><path d="m366.213 441.3c-6.666 0-9.995-8.473-5.09-13.005 2.315-2.139 5.841-2.597 8.624-1.11 2.821 1.507 4.402 4.75 3.849 7.901-.623 3.548-3.771 6.214-7.383 6.214z"/><path d="m384.284 306.389c-6.803 0-10.063-8.779-4.87-13.201 5.298-4.512 13.596.34 12.22 7.171-.698 3.462-3.81 6.03-7.35 6.03z"/></g><path d="m243.704 253.36c-6.783 0-10.053-8.751-4.896-13.181 5.291-4.545 13.621.288 12.246 7.141-.694 3.459-3.808 6.04-7.35 6.04z" fill="#ddc448"/><path d="m170.704 301.36c-6.783 0-10.053-8.751-4.896-13.181 5.291-4.545 13.621.288 12.246 7.141-.694 3.459-3.808 6.04-7.35 6.04z" fill="#ddc448"/><path d="m189.224 392.009c-6.875 0-10.094-8.941-4.756-13.301 2.584-2.111 6.337-2.248 9.068-.333 2.678 1.877 3.824 5.375 2.805 8.48-.998 3.035-3.918 5.154-7.117 5.154z" fill="#ddc448"/><path d="m67.193 301.71c-6.753 0-10.078-8.755-4.892-13.179 2.449-2.089 6.055-2.405 8.814-.719 2.525 1.544 3.956 4.562 3.504 7.496-.559 3.629-3.744 6.402-7.426 6.402z" fill="#f5dc60"/></g></svg>